<svg height="512" viewBox="0 0 512 512" width="512" xmlns="http://www.w3.org/2000/svg"><g id="Layer_1_copy" data-name="Layer 1 copy"><path d="m404.22 314.84a69.78 69.78 0 1 1 -69.79 69.78 69.86 69.86 0 0 1 69.79-69.78m0-38a107.78 107.78 0 1 0 107.78 107.78 107.78 107.78 0 0 0 -107.78-107.78z"/><path d="m440.72 365.62h-17.5v-17.5a19 19 0 0 0 -38 0v17.5h-17.5a19 19 0 0 0 0 38h17.5v17.49a19 19 0 0 0 38 0v-17.49h17.5a19 19 0 0 0 0-38z"/><path d="m356.34 60.22c1.1 0 2.22 0 3.32.07 25.95 1.56 53.51 16 75.65 39.61 22.94 24.47 37 55.74 38.54 85.83a126.31 126.31 0 0 1 -3.08 33.33c-1.53 6.19-6.13 21.46-11.06 31.31l-.63 1.13a20 20 0 0 0 6.92 26.71 18.12 18.12 0 0 0 25.72-7l.09-.17c9.63-17.3 16.1-43.57 16.06-43.56a165.11 165.11 0 0 0 4-43.49c-4.12-82.33-75.89-157.39-150.15-161.67-1.79-.08-3.55-.12-5.32-.12-26.58 0-50.88 9.47-71.61 25.8l-28.2 24-28.2-24a125.56 125.56 0 0 0 -26.42-16.09 109.84 109.84 0 0 0 -45.22-9.71c-1.75 0-3.52 0-5.29.12-74.32 4.3-146.09 79.36-150.21 161.68a165.11 165.11 0 0 0 4 43.49c5 20.09 16.05 43.54 16.06 43.56 22.06 43 58.06 78.92 90.13 108.14 33.54 30.52 60 50.59 102.6 82.64l42.49 30.17h.83l29-20.57a19 19 0 0 0 5.83-24.34 19 19 0 0 0 -27.92-6.62l-7.27 5.25-20.51-14.57c-42-31.58-67.45-50.94-99.43-80-29.5-26.87-62.23-59.35-81.59-96.77-2.82-6.1-9.93-22.72-13.22-35.67a125.87 125.87 0 0 1 -3-32.93c1.56-30.09 15.6-61.36 38.54-85.83 22.14-23.62 49.69-38.05 75.63-39.61 1.11 0 2.22-.07 3.31-.07a72.42 72.42 0 0 1 29.71 6.39 87.86 87.86 0 0 1 17.89 10.85l27.56 23.49a38 38 0 0 0 49.27 0l27.61-23.51c14.73-11.49 30.73-17.27 47.57-17.27"/></g></svg>