<svg xmlns="http://www.w3.org/2000/svg" version="1.1" xmlns:xlink="http://www.w3.org/1999/xlink" width="512" height="512" x="0" y="0" viewBox="0 0 32 32" style="enable-background:new 0 0 512 512" xml:space="preserve" fill-rule="evenodd" class=""><g><path fill="#ffffff" d="M17.444 2.383c-.903-.5-2-.5-2.904 0a93213.86 93213.86 0 0 1-9.667 5.35 3 3 0 0 0-.271 5.079l9.666 6.789a3 3 0 0 0 3.448 0c2.13-1.497 6.74-4.733 9.666-6.79a3 3 0 0 0-.271-5.08l-9.667-5.348z" opacity="1" data-original="#060000" class=""></path><path fill="#ffffff" d="m3.92 22.174 10.348 7.268a3 3 0 0 0 3.448 0l10.349-7.268a1 1 0 0 0-1.15-1.636l-10.348 7.268a1.002 1.002 0 0 1-1.15 0L5.068 20.538a1 1 0 0 0-1.149 1.636z" opacity="1" data-original="#060000" class=""></path><path fill="#ffffff" d="m3.92 17.183 10.348 7.268a3 3 0 0 0 3.448 0l10.349-7.268a1 1 0 0 0-1.15-1.636l-10.348 7.268a1.002 1.002 0 0 1-1.15 0L5.068 15.547a1 1 0 0 0-1.149 1.636z" opacity="1" data-original="#060000" class=""></path></g></svg>