<svg id="layer_1" enable-background="new 0 0 32 32" viewBox="0 0 32 32" xmlns="http://www.w3.org/2000/svg"><g><path d="m16.0004883 24.2490234c1.1474609 0 2.3095703-.1210938 3.4545898-.3613281.5405273-.1132812.8867188-.6425781.7739258-1.1835938-.1137695-.5400391-.6401367-.8886719-1.184082-.7734375-1.0097656.2109375-2.0341797.3183594-3.0444336.3183594-4.8222656 0-9.2851562-2.3613281-11.9443359-6.3261719-.074707-.1083984-.074707-.2373047.0068359-.3564453 2.6523438-3.9541016 7.1152344-6.3154297 11.9375-6.3154297s9.2851562 2.3613281 11.9414062 6.3212891c.074707.1103516.0771484.2363281.0058594.3457031-.2988281.4648438-.1650391 1.0839844.2993164 1.3828125.4633789.2978516 1.0830078.1650391 1.3823242-.2988281.503418-.7822266.4902344-1.7851562-.0302734-2.5488281-3.0249023-4.5097656-8.1083984-7.2021484-13.5986328-7.2021484s-10.5737305 2.6923828-13.5917969 7.1914062c-.546875.7939453-.546875 1.8212891-.0068359 2.6044922 3.0249023 4.5097656 8.1083984 7.2021484 13.5986328 7.2021484z"/><path d="m15.9716797 12.8554688c.5522461 0 1-.4472656 1-1s-.4477539-1-1-1c-2.7563477 0-4.9990234 2.2080078-4.9990234 4.9228516s2.2426758 4.9228516 4.9990234 4.9228516c2.7568359 0 4.9995117-2.2080078 4.9995117-4.9228516 0-.5527344-.4477539-1-1-1s-1 .4472656-1 1c0 1.6113281-1.3457031 2.9228516-2.9995117 2.9228516s-2.9990234-1.3115234-2.9990234-2.9228516 1.3452148-2.9228516 2.9990234-2.9228516z"/><path d="m25.4238281 24.7490234c.5522461 0 1-.4472656 1-1v-1.5751953h1.574707c.5522461 0 1-.4472656 1-1s-.4477539-1-1-1h-1.574707v-1.5751953c0-.5527344-.4477539-1-1-1s-1 .4472656-1 1v1.5751953h-1.574707c-.5522461 0-1 .4472656-1 1s.4477539 1 1 1h1.574707v1.5751953c0 .5527344.4477539 1 1 1z"/></g></svg>