<svg xmlns="http://www.w3.org/2000/svg" version="1.1" xmlns:xlink="http://www.w3.org/1999/xlink" width="512" height="512" x="0" y="0" viewBox="0 0 100 100" style="enable-background:new 0 0 512 512" xml:space="preserve"><g><path d="M64.782 57.331c-.096 4.439-6.676 8.024-14.782 8.024s-14.687-3.585-14.783-8.024c-12.4 1.134-22.114 11.557-22.114 24.25C13.104 95.033 24.008 95 37.458 95h25.085c13.449 0 24.354.033 24.354-13.419-.001-12.693-9.71-23.116-22.115-24.25z" fill="#ffffff" opacity="1" data-original="#000000"></path><path d="M29.531 40.467a6.447 6.447 0 0 0 1.674.224h1.148l.014-.001C34.776 51.556 41.759 59.414 50 59.414c7.399 0 13.769-6.348 16.74-15.507 1.397-.99 2.554-2.125 3.406-3.372.067-.014.138-.022.206-.038 2.624-.648 4.562-2.884 4.562-5.555V30.43c0-2.668-1.938-4.907-4.562-5.553v-.7C70.353 13.602 61.192 5 49.939 5s-20.408 8.603-20.408 19.178v.727c-2.563.685-4.443 2.897-4.443 5.526v4.511c0 2.629 1.88 4.841 4.443 5.525zM50 56.564c-8.246 0-15.058-8.956-16.128-20.572.725.182 1.616.534 2.586 1.211 0-.002-1.841-10.932 2.047-12.466 0 0 5.363 2.605 11.494 2.772 6.132-.167 11.497-2.772 11.497-2.772 3.886 1.534 2.043 12.464 2.043 12.466.958-.668 1.833-1.017 2.552-1.201v.263a32.549 32.549 0 0 1-.551 3.54c-2.538 2.296-6.899 3.951-11.906 4.258a2.63 2.63 0 0 0-1.712-.639h-3.54a2.666 2.666 0 1 0 0 5.332h3.54c.719 0 1.367-.287 1.848-.75 3.707-.207 7.091-1.039 9.9-2.334-2.895 6.55-7.932 10.892-13.67 10.892zm-.061-47.561c8.195 0 14.963 5.763 16 13.199-3.266-5.677-9.172-9.481-15.938-9.481-6.875 0-12.872 3.926-16.102 9.758.902-7.57 7.748-13.476 16.04-13.476z" fill="#ffffff" opacity="1" data-original="#000000"></path></g></svg>